<?xml version="1.0" standalone="no"?>
<!DOCTYPE svg PUBLIC "-//W3C//DTD SVG 20010904//EN"
 "http://www.w3.org/TR/2001/REC-SVG-20010904/DTD/svg10.dtd">
<svg version="1.0" xmlns="http://www.w3.org/2000/svg"
 width="1024.000000pt" height="1024.000000pt" viewBox="0 0 1024.000000 1024.000000"
 preserveAspectRatio="xMidYMid meet">
<metadata>
Created by potrace 1.14, written by Peter Selinger 2001-2017
</metadata>
<g transform="translate(0.000000,1024.000000) scale(0.100000,-0.100000)"
fill="#000000" stroke="none">
<path d="M4845 8213 c-306 -27 -688 -125 -970 -250 -273 -121 -645 -353 -645
-403 0 -22 43 -55 59 -46 6 4 59 41 118 82 420 294 930 478 1454 525 163 14
521 6 666 -15 496 -74 937 -250 1344 -537 73 -51 90 -59 107 -50 23 12 34 35
25 56 -3 9 -49 47 -102 84 -419 298 -915 485 -1441 546 -123 14 -493 19 -615
8z"/>
<path d="M4590 7920 c-450 -86 -878 -282 -1239 -567 -124 -98 -367 -341 -464
-465 -288 -364 -492 -815 -573 -1265 -19 -104 -13 -123 37 -123 33 0 29 -9 69
183 84 408 263 792 529 1137 84 110 361 387 471 471 357 275 733 447 1169 535
69 14 131 30 138 36 19 16 16 56 -6 68 -23 12 -12 13 -131 -10z"/>
<path d="M5516 7927 c-12 -9 -17 -23 -14 -42 3 -28 7 -31 68 -42 473 -90 847
-252 1215 -527 134 -100 384 -343 489 -476 279 -351 487 -804 556 -1210 19
-111 28 -130 60 -130 54 0 55 15 21 185 -159 779 -626 1445 -1312 1868 -293
181 -636 311 -984 373 -44 8 -80 14 -81 14 0 0 -8 -6 -18 -13z"/>
<path d="M4900 7699 c-437 -36 -905 -204 -1257 -453 -73 -51 -88 -77 -61 -104
20 -20 32 -15 140 57 304 204 626 330 1013 398 146 25 616 25 765 0 153 -26
335 -72 463 -118 153 -53 408 -182 546 -274 62 -42 120 -75 128 -73 25 5 40
35 27 55 -36 61 -428 281 -638 358 -357 131 -747 184 -1126 154z"/>
<path d="M2652 6993 c-30 -26 -122 -158 -196 -282 -261 -435 -412 -931 -434
-1428 -20 -446 40 -845 188 -1246 59 -161 206 -452 301 -597 130 -200 162
-233 197 -198 23 23 11 57 -48 140 -295 412 -482 910 -540 1440 -13 124 -13
455 0 589 52 522 244 1034 545 1453 58 81 68 118 36 136 -25 13 -25 13 -49 -7z"/>
<path d="M7529 6989 c-11 -11 -18 -27 -15 -35 3 -8 37 -59 74 -112 98 -138
160 -245 246 -422 201 -416 296 -835 296 -1302 0 -324 -45 -615 -142 -918 -88
-275 -237 -576 -400 -805 -77 -109 -81 -117 -62 -144 27 -38 50 -26 111 56
310 420 519 970 572 1507 16 160 14 488 -4 646 -44 381 -156 750 -325 1075
-104 202 -270 455 -306 469 -22 8 -22 8 -45 -15z"/>
<path d="M2993 6597 c-225 -315 -378 -710 -439 -1132 -25 -166 -25 -524 0
-690 59 -407 193 -763 413 -1093 66 -100 78 -113 100 -110 56 7 52 28 -34 159
-176 270 -291 539 -358 839 -73 323 -79 697 -16 1026 63 327 202 662 388 931
65 97 71 111 51 131 -27 27 -53 12 -105 -61z"/>
<path d="M7142 6658 c-20 -20 -15 -34 46 -126 121 -181 217 -367 286 -554 45
-122 99 -335 123 -481 26 -159 26 -606 0 -757 -66 -386 -191 -708 -398 -1018
-72 -108 -77 -120 -57 -140 27 -27 53 -12 104 61 402 568 553 1330 403 2026
-66 302 -199 622 -361 866 -91 136 -114 155 -146 123z"/>
<path d="M5513 6019 c-10 -10 -13 -203 -13 -895 l0 -883 22 -15 c19 -13 25
-14 43 -2 20 13 20 20 23 866 l2 852 298 -5 c309 -5 339 -8 443 -54 63 -28
125 -87 156 -147 23 -44 27 -67 31 -164 4 -97 7 -114 23 -123 59 -31 87 75 59
222 -32 169 -162 288 -365 335 -95 22 -703 33 -722 13z"/>
<path d="M4227 6006 c-7 -8 -21 -34 -30 -57 -8 -24 -61 -168 -117 -319 -56
-151 -191 -514 -300 -806 -110 -292 -202 -542 -205 -556 -13 -50 58 -66 82
-18 7 14 73 189 147 390 188 511 192 524 303 820 55 146 112 300 128 343 15
42 32 77 36 77 5 0 9 -2 9 -5 0 -22 284 -863 295 -874 8 -9 23 -11 39 -7 38 9
34 35 -35 246 -33 102 -101 309 -150 460 -50 151 -97 285 -105 298 -17 26 -74
31 -97 8z"/>
<path d="M4509 5861 l-21 -17 135 -413 c74 -227 142 -420 151 -429 21 -22 66
-2 66 30 0 18 -164 526 -247 765 -27 78 -48 94 -84 64z"/>
<path d="M5742 5798 c-9 -9 -12 -170 -12 -664 0 -359 3 -659 6 -668 9 -24 441
-23 525 0 75 21 130 68 159 135 19 46 22 66 18 153 -3 89 -7 107 -33 155 -53
97 -144 137 -331 146 -94 5 -114 3 -128 -10 -21 -21 -20 -38 2 -58 15 -13 39
-17 113 -17 223 -1 295 -57 293 -231 -1 -104 -19 -142 -84 -178 -42 -24 -55
-25 -247 -29 l-203 -5 0 598 0 597 163 -4 c146 -3 167 -5 210 -27 79 -38 108
-133 75 -243 -10 -33 -9 -41 4 -55 24 -24 63 -10 79 29 17 40 17 169 0 219
-24 74 -107 136 -209 158 -73 15 -384 15 -400 -1z"/>
<path d="M4232 5483 c-5 -10 -55 -153 -111 -318 -55 -165 -137 -405 -181 -534
-44 -129 -80 -238 -80 -242 0 -15 47 -40 63 -33 9 3 23 27 32 52 22 61 288
840 328 960 24 71 29 97 21 110 -16 24 -60 28 -72 5z"/>
<path d="M6488 5389 c-36 -20 -19 -79 23 -79 43 0 63 45 33 74 -18 18 -32 20
-56 5z"/>
<path d="M5943 5269 c-7 -7 -13 -20 -13 -29 0 -33 22 -40 135 -40 215 -1 323
-32 404 -118 75 -79 111 -183 111 -322 0 -245 -120 -411 -325 -449 -32 -6
-159 -11 -281 -11 -214 0 -224 -1 -234 -20 -6 -12 -8 -30 -5 -40 6 -19 17 -20
264 -20 279 0 331 7 422 56 64 36 141 114 177 182 46 87 65 172 65 292 0 171
-31 271 -114 371 -49 59 -102 95 -186 127 -60 22 -87 25 -238 29 -131 4 -173
2 -182 -8z"/>
<path d="M4220 4870 c-8 -14 -8 -26 0 -40 10 -19 23 -20 312 -22 l302 -3 19
-50 c11 -27 56 -151 102 -275 46 -124 86 -233 90 -242 9 -22 58 -24 75 -3 10
12 4 37 -33 138 -25 67 -76 205 -113 307 -36 102 -71 191 -77 198 -7 9 -87 12
-338 12 -318 0 -329 -1 -339 -20z"/>
<path d="M2310 4725 c-10 -12 -9 -33 4 -108 84 -466 301 -935 603 -1302 107
-130 323 -343 444 -437 364 -282 812 -484 1256 -564 75 -13 96 -14 108 -4 18
15 20 54 2 68 -7 6 -73 23 -147 37 -936 183 -1726 862 -2053 1765 -52 144 -87
269 -118 425 -12 61 -26 116 -31 123 -14 17 -53 15 -68 -3z"/>
<path d="M7856 4723 c-4 -10 -16 -63 -27 -119 -80 -416 -252 -802 -514 -1152
-93 -126 -373 -410 -495 -504 -347 -266 -738 -447 -1142 -529 -81 -16 -155
-32 -163 -35 -19 -8 -19 -58 0 -74 12 -10 33 -9 108 4 449 81 902 286 1265
573 118 93 364 337 456 453 204 256 377 572 476 871 71 215 127 476 109 510
-13 25 -64 26 -73 2z"/>
<path d="M4203 4663 c-52 -5 -70 -24 -55 -58 l11 -25 272 -2 272 -3 36 -105
c32 -94 39 -105 62 -108 14 -2 31 4 39 13 11 13 7 35 -25 138 -20 67 -44 129
-51 137 -12 13 -57 15 -267 16 -139 1 -271 -1 -294 -3z"/>
<path d="M3830 4290 c-11 -11 -20 -26 -20 -33 0 -18 32 -47 51 -47 40 0 55 71
20 90 -26 13 -28 13 -51 -10z"/>
<path d="M3582 3098 c-7 -7 -12 -22 -12 -35 0 -18 25 -39 121 -102 775 -513
1761 -570 2596 -151 194 98 383 223 383 254 0 25 -17 46 -37 46 -8 0 -48 -24
-91 -54 -317 -221 -701 -367 -1112 -423 -140 -19 -456 -21 -590 -4 -422 54
-808 197 -1127 417 -96 66 -111 72 -131 52z"/>
<path d="M3242 2708 c-35 -35 -2 -67 198 -197 147 -96 416 -232 585 -296 402
-152 801 -213 1258 -193 575 25 1163 229 1630 566 88 63 103 82 87 112 -18 33
-54 23 -136 -35 -411 -295 -902 -483 -1415 -540 -253 -28 -615 -16 -864 29
-428 78 -858 258 -1203 506 -83 59 -117 71 -140 48z"/>
</g>
</svg>
